<?xml version="1.0" encoding="UTF-8"?>
<svg width="600" height="400" xmlns="http://www.w3.org/2000/svg">
  <!-- Background -->
  <rect width="600" height="400" fill="white"/>
  
  <!-- Title -->
  <text x="300.0" y="25" text-anchor="middle" font-size="16" font-weight="bold">
    MTS Coverage Curve: Undetermined Positions vs Tail Subset Size
  </text>
  
  <!-- Axes -->
  <line x1="50" y1="350" x2="550" y2="350" stroke="black" stroke-width="2"/>
  <line x1="50" y1="50" x2="50" y2="350" stroke="black" stroke-width="2"/>
  
  <!-- X-axis label -->
  <text x="300.0" y="390" text-anchor="middle" font-size="12">
    Tail Subset Size
  </text>
  
  <!-- Y-axis label -->
  <text x="15" y="200.0" text-anchor="middle" font-size="12" transform="rotate(-90 15 200.0)">
    Undetermined Positions
  </text>
  
  <!-- Grid lines -->
  <line x1="50" y1="350.0" x2="550" y2="350.0" stroke="lightgray" stroke-width="0.5"/>
  <text x="45" y="353.0" text-anchor="end" font-size="10">0</text>
  <line x1="50" y1="329.45205479452056" x2="550" y2="329.45205479452056" stroke="lightgray" stroke-width="0.5"/>
  <text x="45" y="332.45205479452056" text-anchor="end" font-size="10">5</text>
  <line x1="50" y1="308.9041095890411" x2="550" y2="308.9041095890411" stroke="lightgray" stroke-width="0.5"/>
  <text x="45" y="311.9041095890411" text-anchor="end" font-size="10">10</text>
  <line x1="50" y1="288.35616438356163" x2="550" y2="288.35616438356163" stroke="lightgray" stroke-width="0.5"/>
  <text x="45" y="291.35616438356163" text-anchor="end" font-size="10">15</text>
  <line x1="50" y1="267.8082191780822" x2="550" y2="267.8082191780822" stroke="lightgray" stroke-width="0.5"/>
  <text x="45" y="270.8082191780822" text-anchor="end" font-size="10">20</text>
  <line x1="50" y1="247.26027397260276" x2="550" y2="247.26027397260276" stroke="lightgray" stroke-width="0.5"/>
  <text x="45" y="250.26027397260276" text-anchor="end" font-size="10">25</text>
  <line x1="50" y1="226.7123287671233" x2="550" y2="226.7123287671233" stroke="lightgray" stroke-width="0.5"/>
  <text x="45" y="229.7123287671233" text-anchor="end" font-size="10">30</text>
  <line x1="50" y1="206.16438356164383" x2="550" y2="206.16438356164383" stroke="lightgray" stroke-width="0.5"/>
  <text x="45" y="209.16438356164383" text-anchor="end" font-size="10">35</text>
  <line x1="50" y1="185.6164383561644" x2="550" y2="185.6164383561644" stroke="lightgray" stroke-width="0.5"/>
  <text x="45" y="188.6164383561644" text-anchor="end" font-size="10">40</text>
  <line x1="50" y1="165.06849315068493" x2="550" y2="165.06849315068493" stroke="lightgray" stroke-width="0.5"/>
  <text x="45" y="168.06849315068493" text-anchor="end" font-size="10">45</text>
  <line x1="50" y1="144.5205479452055" x2="550" y2="144.5205479452055" stroke="lightgray" stroke-width="0.5"/>
  <text x="45" y="147.5205479452055" text-anchor="end" font-size="10">50</text>
  <line x1="50" y1="123.97260273972603" x2="550" y2="123.97260273972603" stroke="lightgray" stroke-width="0.5"/>
  <text x="45" y="126.97260273972603" text-anchor="end" font-size="10">55</text>
  <line x1="50" y1="103.42465753424659" x2="550" y2="103.42465753424659" stroke="lightgray" stroke-width="0.5"/>
  <text x="45" y="106.42465753424659" text-anchor="end" font-size="10">60</text>
  <line x1="50" y1="82.8767123287671" x2="550" y2="82.8767123287671" stroke="lightgray" stroke-width="0.5"/>
  <text x="45" y="85.8767123287671" text-anchor="end" font-size="10">65</text>
  <line x1="50" y1="62.32876712328766" x2="550" y2="62.32876712328766" stroke="lightgray" stroke-width="0.5"/>
  <text x="45" y="65.32876712328766" text-anchor="end" font-size="10">70</text>
  <line x1="50.0" y1="50" x2="50.0" y2="350" stroke="lightgray" stroke-width="0.5"/>
  <text x="50.0" y="365" text-anchor="middle" font-size="10">0</text>
  <line x1="95.45454545454545" y1="50" x2="95.45454545454545" y2="350" stroke="lightgray" stroke-width="0.5"/>
  <text x="95.45454545454545" y="365" text-anchor="middle" font-size="10">2</text>
  <line x1="140.9090909090909" y1="50" x2="140.9090909090909" y2="350" stroke="lightgray" stroke-width="0.5"/>
  <text x="140.9090909090909" y="365" text-anchor="middle" font-size="10">4</text>
  <line x1="186.36363636363635" y1="50" x2="186.36363636363635" y2="350" stroke="lightgray" stroke-width="0.5"/>
  <text x="186.36363636363635" y="365" text-anchor="middle" font-size="10">6</text>
  <line x1="231.8181818181818" y1="50" x2="231.8181818181818" y2="350" stroke="lightgray" stroke-width="0.5"/>
  <text x="231.8181818181818" y="365" text-anchor="middle" font-size="10">8</text>
  <line x1="277.27272727272725" y1="50" x2="277.27272727272725" y2="350" stroke="lightgray" stroke-width="0.5"/>
  <text x="277.27272727272725" y="365" text-anchor="middle" font-size="10">10</text>
  <line x1="322.7272727272727" y1="50" x2="322.7272727272727" y2="350" stroke="lightgray" stroke-width="0.5"/>
  <text x="322.7272727272727" y="365" text-anchor="middle" font-size="10">12</text>
  <line x1="368.1818181818182" y1="50" x2="368.1818181818182" y2="350" stroke="lightgray" stroke-width="0.5"/>
  <text x="368.1818181818182" y="365" text-anchor="middle" font-size="10">14</text>
  <line x1="413.6363636363636" y1="50" x2="413.6363636363636" y2="350" stroke="lightgray" stroke-width="0.5"/>
  <text x="413.6363636363636" y="365" text-anchor="middle" font-size="10">16</text>
  <line x1="459.0909090909091" y1="50" x2="459.0909090909091" y2="350" stroke="lightgray" stroke-width="0.5"/>
  <text x="459.0909090909091" y="365" text-anchor="middle" font-size="10">18</text>
  <line x1="504.5454545454545" y1="50" x2="504.5454545454545" y2="350" stroke="lightgray" stroke-width="0.5"/>
  <text x="504.5454545454545" y="365" text-anchor="middle" font-size="10">20</text>
  <line x1="550.0" y1="50" x2="550.0" y2="350" stroke="lightgray" stroke-width="0.5"/>
  <text x="550.0" y="365" text-anchor="middle" font-size="10">22</text>
  <!-- Mean undetermined line -->
  <polyline points="50.0,50.0 72.72727272727272,54.10958904109589 95.45454545454545,58.219178082191775 118.18181818181817,62.32876712328766 140.9090909090909,66.43835616438355 163.63636363636363,70.5479452054795 186.36363636363635,74.65753424657532 209.0909090909091,78.76712328767127 231.8181818181818,82.8767123287671 254.54545454545456,86.98630136986304 277.27272727272725,91.09589041095893 300.0,95.20547945205482 322.7272727272727,99.31506849315068 345.4545454545455,103.42465753424659 368.1818181818182,107.53424657534245 390.9090909090909,111.64383561643837 413.6363636363636,115.75342465753425 436.3636363636364,119.86301369863014 459.0909090909091,123.97260273972603 481.8181818181818,128.08219178082194 504.5454545454545,132.1917808219178 527.2727272727273,136.30136986301372 550.0,140.41095890410958 " fill="none" stroke="blue" stroke-width="2"/>
  <line x1="50.0" y1="50.0" x2="50.0" y2="50.0" stroke="lightblue" stroke-width="1"/>
  <circle cx="50.0" cy="50.0" r="3" fill="blue"/>
  <line x1="72.72727272727272" y1="54.10958904109589" x2="72.72727272727272" y2="54.10958904109589" stroke="lightblue" stroke-width="1"/>
  <circle cx="72.72727272727272" cy="54.10958904109589" r="3" fill="blue"/>
  <line x1="95.45454545454545" y1="58.219178082191775" x2="95.45454545454545" y2="58.219178082191775" stroke="lightblue" stroke-width="1"/>
  <circle cx="95.45454545454545" cy="58.219178082191775" r="3" fill="blue"/>
  <line x1="118.18181818181817" y1="62.32876712328766" x2="118.18181818181817" y2="62.32876712328766" stroke="lightblue" stroke-width="1"/>
  <circle cx="118.18181818181817" cy="62.32876712328766" r="3" fill="blue"/>
  <line x1="140.9090909090909" y1="66.43835616438355" x2="140.9090909090909" y2="66.43835616438355" stroke="lightblue" stroke-width="1"/>
  <circle cx="140.9090909090909" cy="66.43835616438355" r="3" fill="blue"/>
  <line x1="163.63636363636363" y1="70.5479452054795" x2="163.63636363636363" y2="70.5479452054795" stroke="lightblue" stroke-width="1"/>
  <circle cx="163.63636363636363" cy="70.5479452054795" r="3" fill="blue"/>
  <line x1="186.36363636363635" y1="74.65753424657532" x2="186.36363636363635" y2="74.65753424657532" stroke="lightblue" stroke-width="1"/>
  <circle cx="186.36363636363635" cy="74.65753424657532" r="3" fill="blue"/>
  <line x1="209.0909090909091" y1="78.76712328767127" x2="209.0909090909091" y2="78.76712328767127" stroke="lightblue" stroke-width="1"/>
  <circle cx="209.0909090909091" cy="78.76712328767127" r="3" fill="blue"/>
  <line x1="231.8181818181818" y1="82.8767123287671" x2="231.8181818181818" y2="82.8767123287671" stroke="lightblue" stroke-width="1"/>
  <circle cx="231.8181818181818" cy="82.8767123287671" r="3" fill="blue"/>
  <line x1="254.54545454545456" y1="86.98630136986304" x2="254.54545454545456" y2="86.98630136986304" stroke="lightblue" stroke-width="1"/>
  <circle cx="254.54545454545456" cy="86.98630136986304" r="3" fill="blue"/>
  <line x1="277.27272727272725" y1="91.09589041095893" x2="277.27272727272725" y2="91.09589041095893" stroke="lightblue" stroke-width="1"/>
  <circle cx="277.27272727272725" cy="91.09589041095893" r="3" fill="blue"/>
  <line x1="300.0" y1="95.20547945205482" x2="300.0" y2="95.20547945205482" stroke="lightblue" stroke-width="1"/>
  <circle cx="300.0" cy="95.20547945205482" r="3" fill="blue"/>
  <line x1="322.7272727272727" y1="99.31506849315068" x2="322.7272727272727" y2="99.31506849315068" stroke="lightblue" stroke-width="1"/>
  <circle cx="322.7272727272727" cy="99.31506849315068" r="3" fill="blue"/>
  <line x1="345.4545454545455" y1="103.42465753424659" x2="345.4545454545455" y2="103.42465753424659" stroke="lightblue" stroke-width="1"/>
  <circle cx="345.4545454545455" cy="103.42465753424659" r="3" fill="blue"/>
  <line x1="368.1818181818182" y1="107.53424657534245" x2="368.1818181818182" y2="107.53424657534245" stroke="lightblue" stroke-width="1"/>
  <circle cx="368.1818181818182" cy="107.53424657534245" r="3" fill="blue"/>
  <line x1="390.9090909090909" y1="111.64383561643837" x2="390.9090909090909" y2="111.64383561643837" stroke="lightblue" stroke-width="1"/>
  <circle cx="390.9090909090909" cy="111.64383561643837" r="3" fill="blue"/>
  <line x1="413.6363636363636" y1="115.75342465753425" x2="413.6363636363636" y2="115.75342465753425" stroke="lightblue" stroke-width="1"/>
  <circle cx="413.6363636363636" cy="115.75342465753425" r="3" fill="blue"/>
  <line x1="436.3636363636364" y1="119.86301369863014" x2="436.3636363636364" y2="119.86301369863014" stroke="lightblue" stroke-width="1"/>
  <circle cx="436.3636363636364" cy="119.86301369863014" r="3" fill="blue"/>
  <line x1="459.0909090909091" y1="123.97260273972603" x2="459.0909090909091" y2="123.97260273972603" stroke="lightblue" stroke-width="1"/>
  <circle cx="459.0909090909091" cy="123.97260273972603" r="3" fill="blue"/>
  <line x1="481.8181818181818" y1="128.08219178082194" x2="481.8181818181818" y2="128.08219178082194" stroke="lightblue" stroke-width="1"/>
  <circle cx="481.8181818181818" cy="128.08219178082194" r="3" fill="blue"/>
  <line x1="504.5454545454545" y1="132.1917808219178" x2="504.5454545454545" y2="132.1917808219178" stroke="lightblue" stroke-width="1"/>
  <circle cx="504.5454545454545" cy="132.1917808219178" r="3" fill="blue"/>
  <line x1="527.2727272727273" y1="136.30136986301372" x2="527.2727272727273" y2="136.30136986301372" stroke="lightblue" stroke-width="1"/>
  <circle cx="527.2727272727273" cy="136.30136986301372" r="3" fill="blue"/>
  <line x1="550.0" y1="140.41095890410958" x2="550.0" y2="140.41095890410958" stroke="lightblue" stroke-width="1"/>
  <circle cx="550.0" cy="140.41095890410958" r="3" fill="blue"/>
</svg>